<svg xmlns="http://www.w3.org/2000/svg" xmlns:xlink="http://www.w3.org/1999/xlink" viewBox="0 0 3710 3073.47"><defs><style>.cls-1{fill:url(#linear-gradient);}.cls-2{fill:url(#linear-gradient-2);}.cls-3{fill:url(#linear-gradient-3);}.cls-4{fill:url(#linear-gradient-4);}.cls-5{isolation:isolate;}.cls-6{fill:#f4f7fa;}.cls-7{clip-path:url(#clip-path);}.cls-8{opacity:0.5;}.cls-19,.cls-37,.cls-8{mix-blend-mode:soft-light;}.cls-19,.cls-9{fill:#fff;}.cls-10{clip-path:url(#clip-path-2);}.cls-11{clip-path:url(#clip-path-3);}.cls-12{clip-path:url(#clip-path-4);}.cls-13{fill:#d8dee8;}.cls-14{fill:url(#linear-gradient-9);}.cls-15{fill:url(#linear-gradient-10);}.cls-16,.cls-19,.cls-21,.cls-32,.cls-37{opacity:0.3;}.cls-16,.cls-20,.cls-21,.cls-31,.cls-32{mix-blend-mode:multiply;}.cls-17{fill:url(#linear-gradient-11);}.cls-18{fill:url(#linear-gradient-12);}.cls-20{opacity:0.8;fill:url(#linear-gradient-13);}.cls-21{fill:url(#linear-gradient-14);}.cls-22{fill:url(#linear-gradient-15);}.cls-23{fill:url(#linear-gradient-16);}.cls-24{fill:url(#linear-gradient-17);}.cls-25{fill:url(#linear-gradient-19);}.cls-26{fill:url(#linear-gradient-20);}.cls-27{fill:url(#linear-gradient-21);}.cls-28{fill:url(#linear-gradient-22);}.cls-29{fill:url(#linear-gradient-23);}.cls-30{fill:url(#linear-gradient-24);}.cls-31{opacity:0.37;fill:url(#linear-gradient-25);}.cls-32{fill:url(#linear-gradient-26);}.cls-33{fill:url(#linear-gradient-27);}.cls-34{fill:#26264f;}.cls-35{fill:url(#linear-gradient-28);}.cls-36{opacity:0.66;}</style><linearGradient id="linear-gradient" x1="3130.98" y1="923.16" x2="2770.08" y2="1891.88" gradientUnits="userSpaceOnUse"><stop offset="0" stop-color="#00ff9e"/><stop offset="1" stop-color="#008cbf"/></linearGradient><linearGradient id="linear-gradient-2" x1="698.25" y1="1042.23" x2="2221.34" y2="1042.23" gradientUnits="userSpaceOnUse"><stop offset="0" stop-color="#3fbcff"/><stop offset="1" stop-color="#1b00d4"/></linearGradient><linearGradient id="linear-gradient-3" x1="1417.21" y1="1415.7" x2="1130.83" y2="2184.41" xlink:href="#linear-gradient"/><linearGradient id="linear-gradient-4" x1="1404.49" y1="2199.41" x2="2142.88" y2="2199.41" gradientUnits="userSpaceOnUse"><stop offset="0" stop-color="#ff9085"/><stop offset="1" stop-color="#fb6fbb"/></linearGradient><clipPath id="clip-path"><path class="cls-1" d="M2383.69,1985.32c150.76,1,343-19.19,527-102.46,47-21.24,337.18-152.51,302.91-284.68-12.07-46.56-54.21-53.92-71.44-115.88-20.42-73.43,25.68-110.11,57.63-201.62,19.06-54.6,74.86-214.4-20.87-302.88-57.21-52.87-165.95-77.89-248.71-58.56-121.4,28.34-163.14,146.5-230.3,347.66-59.53,178.32-44.24,222.1-89.35,349.76C2577.12,1711.4,2514.08,1841.84,2383.69,1985.32Z"/></clipPath><clipPath id="clip-path-2"><path class="cls-2" d="M2221.34,1984.1c-115.7-71.39-274-193.36-374.64-390.9-132-259.07-48.72-420.5-155.91-882.77-67.77-292.29-118-495.59-288.51-575.1C1268.67,73,1077.21,94.2,979.34,197.08,898,282.63,871.76,434.67,875.48,538.63c3,84.73,26.11,142-12.35,194.79-39.3,53.94-96.5,39.58-135,81.44-78.06,84.9,19.63,293.63,35.42,327.36,175.63,375.24,593.44,567.38,776.7,649C1691.78,1858.71,1922.06,1942.86,2221.34,1984.1Z"/></clipPath><clipPath id="clip-path-3"><path class="cls-3" d="M2183.5,1968.26c-170.07,131-405.4,273.57-685.82,337.67-71.56,16.36-513.65,117.43-588.6-62-26.41-63.19,15-107.81-18.78-192.91-40.08-100.83-123.93-102.73-239-179-68.64-45.5-269.51-178.64-237.15-361.4,19.34-109.22,121.09-231.21,231.57-280.57,162.06-72.4,311.13,25.64,560.5,195.9,221.06,150.92,241.41,213.73,402.49,319.63C1728.29,1824.24,1912.1,1917.86,2183.5,1968.26Z"/></clipPath><clipPath id="clip-path-4"><path class="cls-4" d="M2142.88,2121.94c-12.92-17.57-90.69-120-213.78-124.24-103-3.57-181.84,63.58-200.09,79.13-73.5,62.64-65,112.59-124.37,132.87-70.5,24.08-121.1-33.17-166.69-.12-31.45,22.81-40.67,74.19-27.91,110,22.38,62.89,117.76,92.86,190.09,77.83,99.66-20.72,101.91-115.71,215.06-146.23,65.75-17.73,84.91,9,154.85-8.16C2051.26,2223.14,2107.63,2167,2142.88,2121.94Z"/></clipPath><linearGradient id="linear-gradient-9" x1="2630.42" y1="488.64" x2="2685.46" y2="-855.81" gradientUnits="userSpaceOnUse"><stop offset="0" stop-color="#ffc444"/><stop offset="1" stop-color="#f36f56"/></linearGradient><linearGradient id="linear-gradient-10" x1="1975.24" y1="-425.52" x2="1902.99" y2="-334.9" gradientTransform="translate(112.57 858.61) rotate(-9.54)" gradientUnits="userSpaceOnUse"><stop offset="0" stop-color="#444b8c"/><stop offset="1" stop-color="#3e4177"/></linearGradient><linearGradient id="linear-gradient-11" x1="1970.71" y1="-424.13" x2="1899.57" y2="-334.9" xlink:href="#linear-gradient-10"/><linearGradient id="linear-gradient-12" x1="2027.6" y1="-271.43" x2="1827.82" y2="258.47" xlink:href="#linear-gradient-10"/><linearGradient id="linear-gradient-13" x1="2096.92" y1="-274.87" x2="1891.23" y2="270.74" xlink:href="#linear-gradient-10"/><linearGradient id="linear-gradient-14" x1="2033.5" y1="-288.6" x2="1826.42" y2="260.67" xlink:href="#linear-gradient-10"/><linearGradient id="linear-gradient-15" x1="1407.16" y1="951.62" x2="2906.39" y2="951.62" xlink:href="#linear-gradient-2"/><linearGradient id="linear-gradient-16" x1="2022.95" y1="1399.6" x2="1987.13" y2="625.78" xlink:href="#linear-gradient-9"/><linearGradient id="linear-gradient-17" x1="2204.92" y1="-210.22" x2="2007.66" y2="312.99" xlink:href="#linear-gradient-10"/><linearGradient id="linear-gradient-19" x1="1861.45" y1="288.22" x2="1909.63" y2="-888.74" gradientTransform="translate(112.57 858.61) rotate(-9.54)" xlink:href="#linear-gradient-9"/><linearGradient id="linear-gradient-20" x1="2524.25" y1="1686.78" x2="2676.56" y2="-57.81" gradientUnits="userSpaceOnUse"><stop offset="0" stop-color="#e38ddd"/><stop offset="0.71" stop-color="#ac79ef"/><stop offset="1" stop-color="#9571f6"/></linearGradient><linearGradient id="linear-gradient-21" x1="1249.67" y1="2112.98" x2="353.93" y2="2208.06" xlink:href="#linear-gradient-9"/><linearGradient id="linear-gradient-22" x1="1728" y1="1721.99" x2="2473.61" y2="3373.34" xlink:href="#linear-gradient-9"/><linearGradient id="linear-gradient-23" x1="1905.37" y1="1940.78" x2="1978.77" y2="337.16" xlink:href="#linear-gradient-9"/><linearGradient id="linear-gradient-24" x1="1727.98" y1="1721.99" x2="2473.6" y2="3373.35" xlink:href="#linear-gradient-9"/><linearGradient id="linear-gradient-25" x1="1939.22" y1="1626.62" x2="2684.83" y2="3277.98" xlink:href="#linear-gradient-9"/><linearGradient id="linear-gradient-26" x1="1044.66" y1="2312.99" x2="1446.19" y2="2312.99" gradientUnits="userSpaceOnUse"><stop offset="0" stop-color="#aa80f9"/><stop offset="1" stop-color="#6165d7"/></linearGradient><linearGradient id="linear-gradient-27" x1="3583" y1="2272.36" x2="4410.93" y2="2272.36" gradientTransform="translate(-2505.35 -41.98) rotate(1.14)" gradientUnits="userSpaceOnUse"><stop offset="0" stop-color="#444b8c"/><stop offset="1" stop-color="#26264f"/></linearGradient><linearGradient id="linear-gradient-28" x1="1097.51" y1="2327.2" x2="1853.46" y2="2327.2" xlink:href="#linear-gradient-2"/></defs><g class="cls-5"><g id="Illustration"><path class="cls-6" d="M1057.38,269.66c-97.25,139.21,16.77,364.9-127.52,469.6-140.46,101.91-313-65.14-445.38,22.59C288.11,892,324,1487.48,611.07,1857.48c86.34,111.26,158.49,154.56,190.44,280.4,68.61,270.21-172.52,430.95-126.63,564.59,103.32,300.91,1692.3,553.41,2329.87-350.93,297.78-422.36,342.33-1032.26,76.28-1495.49C2600.28,19,1275.58-42.7,1057.38,269.66Z"/><path class="cls-1" d="M2383.69,1985.32c150.76,1,343-19.19,527-102.46,47-21.24,337.18-152.51,302.91-284.68-12.07-46.56-54.21-53.92-71.44-115.88-20.42-73.43,25.68-110.11,57.63-201.62,19.06-54.6,74.86-214.4-20.87-302.88-57.21-52.87-165.95-77.89-248.71-58.56-121.4,28.34-163.14,146.5-230.3,347.66-59.53,178.32-44.24,222.1-89.35,349.76C2577.12,1711.4,2514.08,1841.84,2383.69,1985.32Z"/><g class="cls-7"><g class="cls-8"><path class="cls-9" d="M2005,2067.62c-87.31,0-176.66-12.08-267.33-36.22l1.83-6.88c165,43.93,325.51,47.65,477.14,11.07,202-48.73,377.19-169.74,520.76-359.65,149.54-197.83,227.3-420.85,266.19-573.11,26.92-105.35,21.72-222-15.44-346.74l6.82-2c37.54,126,42.76,243.92,15.52,350.53-39.05,152.89-117.15,376.87-267.41,575.64-144.58,191.27-321.14,313.15-524.77,362.28A906.85,906.85,0,0,1,2005,2067.62Z"/><path class="cls-9" d="M2901.65,1407.06l-2-2.49c-.42-.52-42.77-53.29-77-133.84-31.61-74.43-62.59-188.55-30.69-309.55l6.89,1.82c-56.52,214.34,85.76,410.2,104.35,434.56,319.13-207.77,316-445.17,307.35-513.13-.24-1.86-.36-3-.36-3.45l3.57,0,3.56,0c0,.4.13,1.26.29,2.56,8.78,69.2,12.12,311.33-313.28,521.78Z"/><path class="cls-9" d="M2864.74,1687.62a842.27,842.27,0,0,1-122.56-9.33l-1.88-.27-.82-1.72c-.87-1.84-87.06-186.92-68.15-438.53l19.05-253.57,7.1.53-19.05,253.58c-17.79,236.76,58.09,414,66.7,433.22,107.84,15.62,263.17,18.19,394.61-56.9,79-45.14,112.33-97.77,112.66-98.3l6,3.76c-1.36,2.2-34.34,54.43-114.77,100.49C3086.23,1653.49,2995.17,1687.62,2864.74,1687.62Z"/></g></g><path class="cls-2" d="M2221.34,1984.1c-115.7-71.39-274-193.36-374.64-390.9-132-259.07-48.72-420.5-155.91-882.77-67.77-292.29-118-495.59-288.51-575.1C1268.67,73,1077.21,94.2,979.34,197.08,898,282.63,871.76,434.67,875.48,538.63c3,84.73,26.11,142-12.35,194.79-39.3,53.94-96.5,39.58-135,81.44-78.06,84.9,19.63,293.63,35.42,327.36,175.63,375.24,593.44,567.38,776.7,649C1691.78,1858.71,1922.06,1942.86,2221.34,1984.1Z"/><g class="cls-10"><g class="cls-8"><path class="cls-9" d="M2347.29,2033.86c-182.44-29.88-343.81-77-479.64-140-201-93.24-340-219.06-413.11-374-57.17-121.16-73.72-261.74-94.68-439.71-17.37-147.53-16.37-253.58-15.5-347.13,1.14-121.3,2-217.1-38.58-347.11-41.27-132.09-113.08-257.17-213.41-371.77l5.35-4.69c101,115.35,173.29,241.29,214.85,374.33,41,131.08,40.06,227.38,38.91,349.3-.87,93.35-1.86,199.15,15.45,346.24,21.7,184.26,37.37,317.39,94,437.5,72.37,153.35,210.2,278,409.67,370.54,135.24,62.73,296,109.63,477.8,139.4Z"/><path class="cls-9" d="M1351.86,975.46l-1.9-3.55C1218.3,725.27,1044.41,589.59,921.72,519.2,788.88,443,686,424.84,685,424.67l1.19-7c1,.18,105.14,18.54,239.06,95.37,122.9,70.51,296.82,206.08,429,451.91,16.45-12.38,92.36-72.6,159.31-177.1C1583,679.62,1656.6,500.39,1613.74,261l7-1.25c43.29,241.78-31.19,422.85-101.3,532.17-76,118.44-163.43,180.6-164.3,181.21Z"/><path class="cls-9" d="M1409.28,1371.67l-2.58-.21c-168.41-14.3-375.4-197.68-519.38-349C731.61,858.83,614,696.44,612.81,694.82l5.77-4.17c1.17,1.62,118.56,163.67,273.95,327,142.39,149.63,346.5,330.78,512.21,346.52,8.82-20.45,73.46-167.6,165.36-303.65,99-146.52,378.38-247,381.19-248l2.39,6.71c-2.79,1-280,100.74-377.68,245.32-98.13,145.28-165,303.24-165.72,304.82Z"/><path class="cls-9" d="M1718.75,1871.09a1981.74,1981.74,0,0,1-263-18c-185.33-25.11-455.71-89.4-691.28-253.07l-454.9-316,4.06-5.85,454.9,316C1002.93,1757,1272.07,1821,1456.58,1846c175.17,23.75,309.28,17.83,340.88,15.92-55.19-64.62-85.28-137.68-89.44-217.26-3.42-65.35,10.55-135.16,41.53-207.49,52.62-122.9,137.39-211.82,138.24-212.7l5.13,4.94c-.84.87-84.82,89-136.9,210.73-30.51,71.3-44.26,140-40.88,204.25,4.21,80.14,35.29,153.56,92.37,218.24l4.7,5.32-7.07.59C1804.46,1868.57,1772.63,1871.09,1718.75,1871.09Z"/></g></g><path class="cls-3" d="M2183.5,1968.26c-170.07,131-405.4,273.57-685.82,337.67-71.56,16.36-513.65,117.43-588.6-62-26.41-63.19,15-107.81-18.78-192.91-40.08-100.83-123.93-102.73-239-179-68.64-45.5-269.51-178.64-237.15-361.4,19.34-109.22,121.09-231.21,231.57-280.57,162.06-72.4,311.13,25.64,560.5,195.9,221.06,150.92,241.41,213.73,402.49,319.63C1728.29,1824.24,1912.1,1917.86,2183.5,1968.26Z"/><g class="cls-11"><g class="cls-8"><path class="cls-9" d="M1928.35,1990.56q-199.95,0-414.62-60.22c-341.29-95.93-622.54-282.52-798.37-422.16C592.88,1410.91,497.41,1272.91,431.59,1098l6.66-2.51c65.36,173.68,160.08,310.65,281.54,407.1,175.32,139.24,455.71,325.28,795.87,420.88,326.66,91.81,629.86,78.11,901.17-40.71,203.66-89.19,382.67-231.8,532.07-423.87l5.62,4.37c-150.13,193-330.08,336.35-534.83,426C2265.6,1956.78,2101.29,1990.56,1928.35,1990.56Z"/><path class="cls-9" d="M984.73,1761.67c-467.93,0-648.13-245.41-694.24-325.31-1-1.73-1.62-2.85-1.94-3.28l5.65-4.34a43.77,43.77,0,0,1,2.46,4.06c48.9,84.74,250.49,357.66,793.16,317.8.15-17.57-.6-105.3-27.81-212.67-27.93-110.23-90.28-264.35-228.65-372.52l4.38-5.61c140,109.46,203,265.21,231.23,376.59,30.52,120.58,27.94,216.67,27.92,217.63l-.1,3.2-3.2.24Q1036.77,1761.75,984.73,1761.67Z"/><path class="cls-9" d="M931.36,2212.64c-86.33,0-139.13-19.77-139.8-20l2.55-6.64c.83.31,84.13,31.41,212.93,14.55,118.66-15.53,301.27-76.1,498.07-276.34-5.68-24.87-71.45-294.23-297.93-550.12L967.21,1103l5.34-4.72,240,271.11c237.83,268.71,299.39,552.39,300,555.22l.39,1.86-1.34,1.36c-198.92,203-383.9,264.23-504,279.86A589,589,0,0,1,931.36,2212.64Z"/></g></g><path class="cls-4" d="M2142.88,2121.94c-12.92-17.57-90.69-120-213.78-124.24-103-3.57-181.84,63.58-200.09,79.13-73.5,62.64-65,112.59-124.37,132.87-70.5,24.08-121.1-33.17-166.69-.12-31.45,22.81-40.67,74.19-27.91,110,22.38,62.89,117.76,92.86,190.09,77.83,99.66-20.72,101.91-115.71,215.06-146.23,65.75-17.73,84.91,9,154.85-8.16C2051.26,2223.14,2107.63,2167,2142.88,2121.94Z"/><g class="cls-12"><g class="cls-8"><path class="cls-9" d="M1576.81,2304.4c-61.14,0-135.58-30.5-222.28-91.2l2-2.92c116.14,81.32,209.81,108.06,278.4,79.49,43.23-18,64.65-51.94,87.32-87.88,25.51-40.44,51.89-82.26,111.76-102.22,46-15.34,99.36-8,205.59,6.64a1335.22,1335.22,0,0,1,157.67,31.52l-.92,3.44a1331.41,1331.41,0,0,0-157.23-31.43c-105.69-14.56-158.73-21.87-204-6.79-58.66,19.56-84.7,60.83-109.88,100.74-23,36.43-44.69,70.83-89,89.27Q1609.1,2304.42,1576.81,2304.4Z"/><path class="cls-9" d="M1455.16,2407.47l-.81-3.47c126.17-29.28,160.42-100.26,163.46-107.15-11.32-39-44.37-71.93-70.17-92.76a370.6,370.6,0,0,0-54.37-36.49l1.65-3.16c1,.54,104.67,55.31,126.49,132l.17.58-.22.56C1621.05,2298.4,1589,2376.41,1455.16,2407.47Z"/><path class="cls-9" d="M1742.3,2366.65c-12.69-38.14-1.23-94.59,34.06-167.77a821.41,821.41,0,0,1,55.88-97.19c-57-46.44-196.34,63.82-197.75,64.95l-2.23-2.78c.37-.29,36.45-29,79.17-51.1,57.87-30,99.7-34.25,124.36-12.74l1.2,1.05-.92,1.31c-1.2,1.73-120,174.17-90.39,263.14Z"/><path class="cls-9" d="M1865.77,2313.44c-33.57-128.81,139.1-199.88,159.72-207.85-59.23-102.14-207.16-121.48-208.66-121.66l.44-3.53c1.52.18,153,20,212.35,125.24l1,1.84-2,.71c-2,.7-194.14,71.26-159.46,204.35Z"/></g></g><path class="cls-13" d="M1410.75,723.45c19.68,10,44.4.82,55.22-20.49s3.64-46.68-16-56.67c-1-.52-2.06-.95-3.11-1.37a249.15,249.15,0,0,0,8.27-35.56c1.12,0,2.26,0,3.41-.12,22.45-2,40.26-22.63,39.79-46.08s-19-40.84-41.5-38.84c-1.17.11-2.32.29-3.47.5a228.86,228.86,0,0,0-9.61-34c1-.6,2.06-1.23,3.06-1.93,19.21-13.46,25.35-40,13.72-59.32s-36.63-24.05-55.84-10.59c-1,.69-1.91,1.43-2.83,2.19A201.3,201.3,0,0,0,1376.91,398c.64-1,1.26-2.09,1.82-3.2,10.81-21.3,25-44.58,5.12-54.26-45.88-22.4-65.56-3.22-76.38,18.08-.56,1.11-1,2.23-1.51,3.35a203.45,203.45,0,0,0-33.47-6.39c.07-1.18.12-2.37.1-3.57-.47-23.45,6.49-36.14-16-36.58-49.14-.95-65.72,20.38-65.25,43.82,0,1.23.13,2.43.25,3.62a228.43,228.43,0,0,0-33.09,12.28c-.51-1.05-1-2.09-1.65-3.1-11.63-19.3-36.63-24.05-55.84-10.59s-25.35,40-13.72,59.32c.6,1,1.25,1.92,1.92,2.83a249.2,249.2,0,0,0-23.84,27.65c-1-.59-1.91-1.18-2.93-1.69-19.68-10-44.4-.82-55.22,20.49s-3.64,46.67,16,56.66c1,.52,2.06,1,3.1,1.37a250.79,250.79,0,0,0-8.26,35.56c-1.12,0-2.26,0-3.41.13-22.45,2-40.26,22.63-39.8,46.08s19.06,40.83,41.51,38.83c1.17-.11,2.32-.29,3.47-.49a228.39,228.39,0,0,0,9.61,34c-1,.61-2.06,1.23-3.06,1.93-19.21,13.46-25.35,40-13.72,59.33s50.14,28.27,69.35,14.81c1-.69-11.6-5.66-10.68-6.41A202.06,202.06,0,0,0,1096.23,775c-.64,1-1.26,2.09-1.82,3.19-10.82,21.31-3.63,46.68,16,56.67s44.4.82,55.22-20.49c.56-1.1,1-2.22,1.51-3.35a201.38,201.38,0,0,0,33.47,6.39c-.07,1.19-.12,2.37-.1,3.58.47,23.44,19,40.83,41.5,38.83s40.27-22.63,39.8-46.08c0-1.23-.13-2.42-.25-3.61a229.61,229.61,0,0,0,33.09-12.28c.51,1,1,2.08,1.65,3.09,11.63,19.31,36.63,24,55.84,10.59s25.35-40,13.72-59.32c-.6-1-1.25-1.91-1.92-2.83a248.3,248.3,0,0,0,23.84-27.65C1408.77,722.35,1409.73,722.93,1410.75,723.45Zm-245.3,3.11c-71.44-36.27-97.52-128.39-58.24-205.75s129-110.67,200.48-74.4,97.52,128.4,58.24,205.76S1236.9,762.84,1165.45,726.56Z"/><path class="cls-13" d="M1458.5,609.24c22.45-2,40.26-22.63,39.79-46.08s-19-40.84-41.5-38.84c-1.17.11-2.32.29-3.47.5a228.86,228.86,0,0,0-9.61-34c1-.6,2.06-1.23,3.06-1.93,19.21-13.46,43-46,29.42-64-25.72-34.19-52.34-19.39-71.54-5.93-1,.69-1.91,1.43-2.83,2.19A202.14,202.14,0,0,0,1376.91,398c.64-1,1.26-2.08,1.82-3.19a44.77,44.77,0,0,0,2.52-35.25q-27.84,49-54.83,98.41c57,41.77,75.14,124.08,39.51,194.25-30.19,59.46-90.2,92.85-148.8,88.67-2.61,6.77-5.18,13.59-8,20.3-7.59,18.22-16.22,36.07-24.86,53.89q8.14,1.53,16.36,2.4c-.07,1.19-.12,2.37-.1,3.58.47,23.44,14.71,43.37,55.39,41.21,22.51-1.2,26.38-25,25.91-48.46,0-1.23-.13-2.43-.25-3.61a230.8,230.8,0,0,0,33.09-12.28c.51,1,1,2.08,1.65,3.09,11.63,19.31,52,27.51,71.19,14s10-43.47-1.63-62.78c-.6-1-1.25-1.92-1.92-2.83a248.3,248.3,0,0,0,23.84-27.65c1,.6,1.91,1.18,2.93,1.7,19.68,10,44.4.81,55.22-20.49s3.64-46.68-16-56.67c-1-.52-2.06-.95-3.11-1.37a249.15,249.15,0,0,0,8.27-35.56C1456.21,609.36,1457.35,609.34,1458.5,609.24Z"/><path class="cls-9" d="M1431.92,725.85c19.67,10,44.4.82,55.21-20.48s3.64-46.68-16-56.67c-1-.52-2.06-1-3.1-1.37a249.11,249.11,0,0,0,8.26-35.56c1.13,0,2.26,0,3.41-.13,22.45-2,40.27-22.63,39.8-46.08s-19-40.83-41.5-38.83c-1.18.11-2.33.29-3.47.5a228.55,228.55,0,0,0-9.62-34c1-.61,2.06-1.23,3.07-1.93,19.2-13.46,25.35-40,13.71-59.33s-36.63-24-55.84-10.59c-1,.69-1.91,1.44-2.82,2.19a204.28,204.28,0,0,0-24.91-23.25c.63-1,1.25-2.09,1.81-3.19,10.82-21.31,3.64-46.68-16-56.67s-44.4-.82-55.22,20.49c-.56,1.1-1,2.22-1.51,3.35a202.41,202.41,0,0,0-33.47-6.39c.07-1.19.13-2.37.1-3.58-.47-23.44-19-40.83-41.5-38.83s-40.27,22.63-39.8,46.08c0,1.23.13,2.42.25,3.62a229,229,0,0,0-33.08,12.27c-.52-1-1-2.08-1.65-3.09-11.64-19.31-36.64-24.05-55.85-10.59s-25.34,40-13.71,59.32c.59,1,1.25,1.92,1.91,2.83a248.22,248.22,0,0,0-23.83,27.65c-1-.6-1.92-1.18-2.94-1.7-19.68-10-44.4-.81-55.22,20.49s-3.63,46.68,16.05,56.67c1,.52,2.06.95,3.1,1.37a249.11,249.11,0,0,0-8.26,35.56c-1.13,0-2.26,0-3.41.12-22.45,2-40.27,22.63-39.8,46.08s19,40.84,41.5,38.84c1.17-.11,2.33-.29,3.47-.5a230.08,230.08,0,0,0,9.61,34c-1,.6-2.06,1.23-3.06,1.93-19.21,13.46-25.35,40-13.72,59.32s36.64,24.05,55.85,10.59c1-.69,1.91-1.43,2.82-2.19a202.73,202.73,0,0,0,24.91,23.25c-.63,1-1.25,2.09-1.81,3.2-10.82,21.3-3.64,46.68,16,56.67s44.4.81,55.22-20.49c.56-1.11,1-2.23,1.5-3.35a203.56,203.56,0,0,0,33.48,6.39c-.08,1.18-.13,2.37-.11,3.57.47,23.45,19.06,40.84,41.51,38.83s40.26-22.63,39.79-46.07c0-1.23-.12-2.43-.24-3.62a227.88,227.88,0,0,0,33.08-12.28c.51,1.05,1,2.09,1.65,3.1,11.64,19.3,36.64,24,55.84,10.59s25.35-40,13.72-59.32c-.6-1-1.25-1.92-1.91-2.83A250.18,250.18,0,0,0,1429,724.16C1429.93,724.75,1430.9,725.34,1431.92,725.85ZM1186.62,729c-71.45-36.28-97.53-128.4-58.25-205.76s129-110.66,200.48-74.39,97.53,128.39,58.25,205.75S1258.06,765.24,1186.62,729Z"/><path class="cls-14" d="M2715.58,448.81c-19.29-62.46-49.43-92.67-72.39-108.63C2594,306,2527.33,302.06,2529.19,289c.8-5.68,14-9.56,17.94-10.72,19.3-5.67,30.1,4.08,40.84-2.34,8-4.78,10.18-15.09,11.77-23.16,8-40.86-15.54-91.13-28.07-128-.87-2.57-2.84-8.5-.91-9.91,2.09-1.51,7.64,3,9.51,4.53,19.95,16.25,44.85,88.76,44.82,88.77s0-8.31-7.47-32c-13.07-41.22-27.27-60.35-26-93,.24-6.38.51-12.13,2.72-12.78,11.19-3.32,51.4,129.9,58.84,127.44,1.86-.62.82-9.5.3-13.93-4.84-41.31-27.58-53.65-25.65-87,.31-5.26.75-12.92,3.62-13.74,9.65-2.72,35.26,75.14,48,110.76a1702.63,1702.63,0,0,1,63.26,226.4Z"/><path class="cls-15" d="M1893.38,348c-35.58-11.12-45.12-52.3-48.89-68.57-8.92-38.48-5.46-104.9,34.84-123.32,32.37-14.8,68.55,10.52,73,13.76,45.61,32.91,37.05,96,36,102.55-2.25,14.78-6.89,45.27-33.7,64.23C1952.81,337.94,1924.15,357.56,1893.38,348Z"/><g class="cls-16"><path class="cls-17" d="M1940.52,253.25c-23.58-23.37-56.92-13.15-71-34.41-7-10.63-8.82-28.54,5.35-60.44-36.09,21.14-39,84-30.4,121,3.77,16.27,13.31,57.45,48.89,68.57,30.77,9.61,59.43-10,61.32-11.35,1.18-.83,2.3-1.7,3.39-2.57C1962,303.44,1959.78,272.33,1940.52,253.25Z"/></g><path class="cls-18" d="M1865.25,1166.77s-143.18-445.3-142.69-612.83,146.61-232.64,211.49-248.13S2136.46,307.36,2178.8,496s11.78,611.26,11.78,611.26Z"/><path class="cls-19" d="M1984.12,718.42c103.15-12.61,126-110,220.84-121.26a143.56,143.56,0,0,1,30.93-.3c-1.43-18.47-3.2-36.24-5.37-53a144,144,0,0,0-34.65-.12C2101,555,2078.18,652.33,1975,664.93c-84.14,10.27-121.68-48-192.87-22.67-18.34,6.53-33.84,16.83-46.9,28.74,3,16.93,6.39,34.54,10.17,52.59a138.25,138.25,0,0,1,45.84-27.8C1862.46,670.4,1900,728.71,1984.12,718.42Z"/><path class="cls-20" d="M1992.93,889.15c-77.16,8.82-112.44-49.95-177.49-25.84a115.33,115.33,0,0,0-32.61,18.83c39,149.44,82.42,284.63,82.42,284.63l325.33-59.55s12-165.65,10.54-335.79q-3.59.18-6.95.56C2107.19,781.61,2087.53,878.32,1992.93,889.15Z"/><path class="cls-21" d="M2165.88,605.61c-87,9.57-106.66,106.27-201.29,117-77.17,8.78-112.46-50-177.53-25.95-16.31,6-30.11,15.66-41.74,26.91,10.53,51.06,23.73,105.68,37.51,158.53a115.33,115.33,0,0,1,32.61-18.83c65-24.11,100.33,34.66,177.49,25.84,94.6-10.83,114.26-107.54,201.24-117.16C2196.41,771.74,2174.3,604.68,2165.88,605.61Z"/><path class="cls-22" d="M1428.53,1482.34c-62.77-81.78,23.6-266.92,118.41-371.23,110.3-121.36,251.51-154.76,341.11-174.7,296.55-66,391.68,68.15,541.37-8.8,232.19-119.37,181.24-534.22,286.16-545.69,86.15-9.41,221.89,259.36,184.41,525.9-29.08,206.81-225.78,410.25-424.37,500.83-144.07,65.72-122.19,48.27-450.23,67.22C1645.13,1497.84,1490.41,1563,1428.53,1482.34Z"/><path class="cls-23" d="M1785.05,962.14c60.87-21.92,160.38-26.88,159.34-244.37,0,0,126.06-8,130.84-6.4,4.52,1.49-33.39,217.24,142.78,215.77,12-.1,15.13,16.74,5.51,24.36-31.86,25.24-103.71,64.33-210.11,65.56-67.34.79-144.17,15.88-228.71-28.62C1773.12,982.34,1772.28,966.74,1785.05,962.14Z"/><path class="cls-24" d="M2216.41,1373.38c-35.68.45-23.3-301-130-743.56-22.14-91.8-43.84-166.65-59.21-216.92L2141,398.34C2206.85,525,2305,760.64,2286.31,1066,2277.53,1209.58,2242.65,1373.05,2216.41,1373.38Z"/><path class="cls-24" d="M2216.41,1373.38c-35.68.45-23.3-301-130-743.56-22.14-91.8-43.84-166.65-59.21-216.92L2141,398.34C2206.85,525,2305,760.64,2286.31,1066,2277.53,1209.58,2242.65,1373.05,2216.41,1373.38Z"/><path class="cls-25" d="M1820.26,590c4.82,28.35,27.13,238.66,187.48,203.9,146.45-31.74,107.9-180.43,90.69-255.53,0,0-18.31-66.87-70.95-75.64,0,0,52.3,29.19,66,113.74,0,0-19-42.57-126.73-20.89s-122.07,74.63-122.07,74.63-32.83-77.21,14.69-131.24C1859.33,498.92,1822.56,519.22,1820.26,590Z"/><g class="cls-16"><path class="cls-26" d="M2864.68,569.41c20.09,116.56-1.46,191.84-32.87,242.52C2761.07,926.05,2636,922.55,2482,1102.67c-86.2,100.83-91.78,154.32-145.37,231.68-24.6,35.52-56.73,72.35-99.67,107.88,115.75,3.23,138.13,12.27,238.65-33.58,198.59-90.58,395.29-294,424.37-500.83C2917,786.7,2898.28,665.13,2864.68,569.41Z"/></g><path class="cls-27" d="M2901.93,1464.12l-2020.4-69.7a75.46,75.46,0,0,0-78,75.41V2772a75.45,75.45,0,0,0,81.1,75.24L2905,2695.63a75.44,75.44,0,0,0,69.8-75.24V1539.52A75.44,75.44,0,0,0,2901.93,1464.12Z"/><path class="cls-28" d="M2936.66,1464.12l-2020.4-69.7a75.46,75.46,0,0,0-78,75.41V2772a75.45,75.45,0,0,0,81.1,75.24L2939.7,2695.63a75.44,75.44,0,0,0,69.8-75.24V1539.52A75.44,75.44,0,0,0,2936.66,1464.12Z"/><path class="cls-29" d="M2143.44,2188.22,2990,1489a75.17,75.17,0,0,0-53.36-24.92l-2020.4-69.7a75.09,75.09,0,0,0-50.65,17.27l1131.75,782.76A121.15,121.15,0,0,0,2143.44,2188.22Z"/><path class="cls-30" d="M2143.44,2188.22a121.15,121.15,0,0,1-146.08,6.23L865.61,1411.69a75.22,75.22,0,0,0-27.4,58.14V2772a75.45,75.45,0,0,0,81.1,75.24L2939.7,2695.63a75.44,75.44,0,0,0,69.8-75.24V1539.52A75.1,75.1,0,0,0,2990,1489Z"/><path class="cls-31" d="M2990,1489l-846.58,699.18a121.15,121.15,0,0,1-146.08,6.23L865.61,1411.69a75.22,75.22,0,0,0-27.4,58.14v192c40.89-17.19,75.49-20.48,103.62-18.13,77.75,6.49,96.32,55,245.2,125.1,139.21,65.51,153.81,37.59,215.18,85.07,118.22,91.47,66.52,197,170.14,295.24,107.9,102.26,201,22.88,355.29,120.1,163,102.73,110.85,224,245.2,295.24,188.23,99.85,380.44-90.53,540.44,10,48.38,30.4,79.31,78.31,99.25,130.67l127.17-9.54a75.44,75.44,0,0,0,69.8-75.24V1539.52A75.1,75.1,0,0,0,2990,1489Z"/><path class="cls-13" d="M1473.23,1070.85c9.3,4.71,21,.38,26.08-9.68s1.72-22.05-7.57-26.77c-.49-.25-1-.45-1.47-.65a116.93,116.93,0,0,0,3.9-16.8c.53,0,1.07,0,1.61-.05,10.61-.95,19-10.69,18.8-21.77s-9-19.29-19.6-18.34c-.56.05-1.1.13-1.64.23a109,109,0,0,0-4.54-16c.49-.29,1-.58,1.45-.91,9.07-6.36,12-18.91,6.47-28s-17.3-11.35-26.37-5c-.47.33-.91.68-1.34,1a95.79,95.79,0,0,0-11.76-11c.29-.49.59-1,.85-1.5,5.11-10.07,11.79-21.06,2.42-25.64-21.67-10.58-31-1.52-36.08,8.54-.26.53-.49,1.06-.71,1.59a95,95,0,0,0-15.81-3c0-.56.06-1.12,0-1.69-.23-11.08,3.06-17.07-7.58-17.28-23.22-.45-31.05,9.63-30.83,20.7,0,.58.06,1.15.12,1.71a108.12,108.12,0,0,0-15.63,5.8c-.24-.49-.49-1-.78-1.46-5.49-9.12-17.3-11.36-26.38-5s-12,18.9-6.47,28a15.49,15.49,0,0,0,.9,1.33,118.16,118.16,0,0,0-11.26,13.06c-.45-.28-.91-.55-1.39-.8-9.29-4.72-21-.38-26.08,9.68s-1.72,22,7.58,26.77c.48.24,1,.45,1.46.65a119.87,119.87,0,0,0-3.9,16.79c-.53,0-1.07,0-1.61.06-10.6,1-19,10.69-18.8,21.77s9,19.29,19.61,18.34c.55,0,1.09-.13,1.64-.23a106.55,106.55,0,0,0,4.54,16c-.49.29-1,.58-1.45.91-9.07,6.36-12,18.9-6.48,28s23.69,13.36,32.76,7c.46-.32-5.48-2.67-5-3a96.61,96.61,0,0,0,11.77,11c-.3.49-.59,1-.86,1.5-5.11,10.07-1.72,22,7.58,26.77s21,.39,26.08-9.68c.27-.52.49-1,.71-1.58a94.91,94.91,0,0,0,15.82,3c0,.56-.06,1.12,0,1.69.22,11.07,9,19.29,19.6,18.34s19-10.69,18.8-21.76c0-.58-.06-1.15-.12-1.71a108.86,108.86,0,0,0,15.63-5.8c.24.49.49,1,.78,1.46,5.5,9.12,17.31,11.36,26.38,5s12-18.9,6.48-28c-.28-.47-.59-.9-.9-1.33a118.19,118.19,0,0,0,11.25-13.07C1472.29,1070.33,1472.75,1070.6,1473.23,1070.85Zm-115.87,1.47c-33.75-17.14-46.07-60.65-27.52-97.2s61-52.27,94.71-35.14,46.06,60.65,27.51,97.2S1391.11,1089.45,1357.36,1072.32Z"/><path class="cls-13" d="M1495.78,1016.9c10.61-.95,19-10.69,18.8-21.77s-9-19.29-19.6-18.34a14.71,14.71,0,0,0-1.64.23,109,109,0,0,0-4.54-16c.49-.29,1-.58,1.45-.91,9.07-6.36,20.29-21.72,13.89-30.23-12.15-16.14-24.72-9.15-33.79-2.8-.47.33-.91.68-1.34,1a95,95,0,0,0-11.76-11c.29-.49.59-1,.85-1.5a21.13,21.13,0,0,0,1.19-16.66q-13.14,23.15-25.9,46.49c26.93,19.73,35.5,58.61,18.67,91.76-14.26,28.08-42.61,43.86-70.29,41.88-1.23,3.2-2.45,6.42-3.77,9.59-3.59,8.61-7.66,17-11.75,25.46q3.86.72,7.74,1.13c0,.56-.06,1.12,0,1.69.22,11.07,6.94,20.49,26.16,19.47,10.64-.57,12.46-11.82,12.24-22.89,0-.58-.06-1.15-.12-1.71a108.86,108.86,0,0,0,15.63-5.8c.24.49.5,1,.78,1.46,5.5,9.12,24.56,13,33.63,6.64s4.72-20.54-.77-29.66c-.28-.47-.59-.9-.9-1.33a118.19,118.19,0,0,0,11.25-13.07c.45.29.91.56,1.39.81,9.3,4.72,21,.38,26.08-9.68s1.72-22.05-7.57-26.77c-.49-.25-1-.45-1.47-.65a116.93,116.93,0,0,0,3.9-16.8C1494.7,1017,1495.24,1016.94,1495.78,1016.9Z"/><path class="cls-9" d="M1483.23,1072c9.29,4.72,21,.39,26.08-9.68s1.72-22-7.58-26.76a14.47,14.47,0,0,0-1.46-.65,118.29,118.29,0,0,0,3.9-16.8c.53,0,1.07,0,1.61-.06,10.61-.94,19-10.69,18.8-21.76s-9-19.29-19.6-18.35c-.56.05-1.1.14-1.64.24a108.6,108.6,0,0,0-4.54-16c.48-.29,1-.58,1.44-.92,9.08-6.35,12-18.9,6.48-28s-17.3-11.36-26.38-5c-.46.32-.9.68-1.33,1a95.09,95.09,0,0,0-11.77-11c.3-.49.6-1,.86-1.51,5.11-10.06,1.72-22.05-7.58-26.77s-21-.38-26.08,9.68c-.27.52-.49,1-.71,1.58a97.08,97.08,0,0,0-15.81-3c0-.55.06-1.12,0-1.68-.22-11.08-9-19.29-19.6-18.35s-19,10.69-18.8,21.77c0,.58.06,1.14.12,1.71a106.53,106.53,0,0,0-15.63,5.8c-.24-.5-.49-1-.78-1.47-5.5-9.11-17.3-11.35-26.38-5s-12,18.91-6.48,28a15.75,15.75,0,0,0,.91,1.34,118.16,118.16,0,0,0-11.26,13.06c-.45-.28-.91-.56-1.39-.8-9.29-4.72-21-.39-26.08,9.68s-1.72,22.05,7.58,26.77c.48.24,1,.45,1.46.64a117.25,117.25,0,0,0-3.9,16.8c-.53,0-1.07,0-1.61.06-10.61.94-19,10.69-18.8,21.77s9,19.28,19.6,18.34c.56-.05,1.1-.14,1.64-.23a109,109,0,0,0,4.54,16c-.48.28-1,.58-1.44.91-9.08,6.36-12,18.9-6.48,28s17.3,11.36,26.37,5c.47-.32.91-.67,1.34-1a95.09,95.09,0,0,0,11.77,11c-.3.49-.6,1-.86,1.51-5.11,10.07-1.72,22.05,7.58,26.77s21,.39,26.08-9.68c.26-.52.49-1,.71-1.58a96,96,0,0,0,15.81,3c0,.56-.06,1.12,0,1.69.23,11.07,9,19.28,19.61,18.34s19-10.69,18.8-21.77c0-.58-.06-1.14-.12-1.7a109.31,109.31,0,0,0,15.63-5.8c.24.49.49,1,.78,1.46,5.49,9.12,17.3,11.36,26.38,5s12-18.9,6.48-28c-.29-.47-.59-.91-.91-1.34a118.16,118.16,0,0,0,11.26-13.06C1482.29,1071.46,1482.75,1071.74,1483.23,1072Zm-115.87,1.47c-33.75-17.13-46.07-60.65-27.52-97.19s61-52.28,94.7-35.14,46.07,60.65,27.52,97.19S1401.1,1090.59,1367.36,1073.45Z"/><polygon class="cls-32" points="1044.66 1661.13 1044.66 2837.8 1184.29 2964.85 1446.19 2755.14 1044.66 1661.13"/><path class="cls-33" d="M1727.09,1684.92,1847.68,2897.8c1.8,18.06-10.64,33.85-27.68,35.09l-587.58,49.22c-35.82,1.25-55.15-18-57.1-37.15L1044.66,1661.13c-2-19.29,15.93-36.36,52.12-35.62l595.59,25.11C1709.67,1651.27,1725.28,1666.71,1727.09,1684.92Z"/><path class="cls-34" d="M1753.8,1683.38,1874.91,2902.5c1.8,18.15-10.69,34-27.8,35.28l-609.17,44.66c-19,1.39-36.23-13.18-38.18-32.4L1068.51,1659.41c-2-19.39,12.27-34.65,31.6-33.92l618.83,23.4C1736.32,1649.55,1752,1665.07,1753.8,1683.38Z"/><path class="cls-35" d="M1741,1750.65,1853.3,2880.59c1.68,17-10,31.77-26,32.91l-573,40.72c-17.68,1.26-33.68-12.34-35.5-30.24l-121.13-1192.1c-1.84-18,11.39-32.34,29.34-31.76l581.37,18.5C1724.63,1719.14,1739.28,1733.55,1741,1750.65Z"/><path class="cls-9" d="M1432.81,1675.91c.65,6.53-4,11.64-10.29,11.43s-12-5.69-12.69-12.22,4-11.65,10.31-11.42S1432.15,1669.39,1432.81,1675.91Z"/><g class="cls-36"><path class="cls-6" d="M1378.56,2004.14c-68.48,35.64-97.8,114.87-65.49,177s114,83.57,182.53,47.93Z"/><path class="cls-6" d="M1495.6,2229.05h0l-117-224.91h0a65.08,65.08,0,0,1,87.79,27.7l56.94,109.42A65.09,65.09,0,0,1,1495.6,2229.05Z"/><path class="cls-6" d="M1544.59,2330.39c-68.49,35.63-97.81,114.87-65.49,177s114,83.57,182.52,47.93Z"/><path class="cls-6" d="M1661.62,2555.3h0l-117-224.91h0a65.09,65.09,0,0,1,87.79,27.69l56.94,109.43A65.1,65.1,0,0,1,1661.62,2555.3Z"/><path class="cls-6" d="M1562.53,2486.58l-71.23,37.06q-136.53-132.93-184.52-354.6L1378,2132Z"/></g><g class="cls-37"><path class="cls-6" d="M1376.41,2271c-60.55-178.89,44.83-269-14.85-434.7-32.46-90.15-97.46-157.3-169-207.32l-92.49-3.49c-19.33-.73-33.57,14.53-31.6,33.92L1199.76,2950c2,19.22,19.16,33.79,38.18,32.4l525.93-38.56c-1.65-134.76-35.88-230.67-74-298.85C1585.28,2457.68,1439.1,2456.23,1376.41,2271Z"/></g></g></g></svg>