<?xml version="1.0" encoding="UTF-8"?>
<svg id="Layer_2" data-name="Layer 2" xmlns="http://www.w3.org/2000/svg" xmlns:xlink="http://www.w3.org/1999/xlink" viewBox="0 0 394.78 73.4">
  <defs>
    <style>
      .cls-1 {
        fill: #fff;
      }

      .cls-2 {
        filter: url(#drop-shadow-1);
      }

      .cls-3 {
        fill: #f05455;
      }
    </style>
    <filter id="drop-shadow-1" x="-21.14" y="-21.15" width="437.04" height="115.68" filterUnits="userSpaceOnUse">
      <feOffset dx="0" dy="0"/>
      <feGaussianBlur result="blur" stdDeviation="7"/>
      <feFlood flood-color="#231f20" flood-opacity=".25"/>
      <feComposite in2="blur" operator="in"/>
      <feComposite in="SourceGraphic"/>
    </filter>
  </defs>
  <g id="Layer_1-2" data-name="Layer 1">
    <g class="cls-2">
      <g>
        <polygon class="cls-1" points="1.8 34.3 23.82 34.3 0 66.3 0 72.3 39.1 72.3 39.1 62.3 15.88 62.3 39.7 30.3 39.7 24.3 1.8 24.3 1.8 34.3"/>
        <path class="cls-1" d="M81.45,26.4c-3.43-2.07-7.38-3.1-11.85-3.1s-8.78,1.1-12.55,3.3c-3.77,2.2-6.75,5.18-8.95,8.95-2.2,3.77-3.3,8.02-3.3,12.75s1.12,9,3.35,12.8c2.23,3.8,5.27,6.78,9.1,8.95,3.83,2.17,8.15,3.25,12.95,3.25,3.73,0,7.27-.7,10.6-2.1,3.33-1.4,6.17-3.47,8.5-6.2l-7-7.1c-1.47,1.67-3.25,2.93-5.35,3.8-2.1.87-4.38,1.3-6.85,1.3-2.87,0-5.4-.62-7.6-1.85-2.2-1.23-3.9-2.98-5.1-5.25-.57-1.08-1-2.25-1.3-3.5h35.8c.2-1,.35-1.92.45-2.75.1-.83.15-1.65.15-2.45,0-4.6-.98-8.7-2.95-12.3-1.97-3.6-4.67-6.43-8.1-8.5ZM57.3,40.25c1.13-2.17,2.73-3.85,4.8-5.05,2.07-1.2,4.5-1.8,7.3-1.8s4.92.54,6.75,1.6c1.83,1.07,3.25,2.6,4.25,4.6.56,1.12.97,2.39,1.25,3.8h-25.51c.28-1.13.65-2.19,1.16-3.15Z"/>
        <path class="cls-1" d="M142.8,33.15c-1.6-2.9-3.8-5.27-6.6-7.1-2.8-1.83-6-2.75-9.6-2.75s-6.72.82-9.55,2.45c-1.85,1.07-3.43,2.39-4.75,3.96v-5.41h-11v48h11v-27.7c0-2.13.47-4.03,1.4-5.7.93-1.67,2.23-2.96,3.9-3.9,1.67-.93,3.57-1.4,5.7-1.4,3.2,0,5.82,1.03,7.85,3.1,2.03,2.07,3.05,4.7,3.05,7.9v27.7h11v-30.1c0-3.13-.8-6.15-2.4-9.05Z"/>
      </g>
      <g>
        <path class="cls-1" d="M172.45,36.85c1.9-1.1,4.05-1.65,6.45-1.65,2.13,0,4.08.37,5.85,1.1,1.77.73,3.25,1.83,4.45,3.3l8.6-8.6c-2.4-2.67-5.2-4.68-8.4-6.05-3.2-1.37-6.7-2.05-10.5-2.05-4.93,0-9.37,1.1-13.3,3.3-3.93,2.2-7.03,5.22-9.3,9.05-2.27,3.83-3.4,8.15-3.4,12.95s1.13,8.92,3.4,12.75c2.27,3.83,5.37,6.87,9.3,9.1,3.93,2.23,8.33,3.35,13.2,3.35,3.87,0,7.42-.72,10.65-2.15,3.23-1.43,6.02-3.48,8.35-6.15l-8.4-8.5c-1.33,1.47-2.87,2.58-4.6,3.35-1.73.77-3.7,1.15-5.9,1.15-2.4,0-4.55-.57-6.45-1.7-1.9-1.13-3.38-2.67-4.45-4.6-1.07-1.93-1.6-4.17-1.6-6.7s.53-4.77,1.6-6.7c1.07-1.93,2.55-3.45,4.45-4.55Z"/>
        <path class="cls-1" d="M239.95,26.2c-3.9-2.2-8.32-3.3-13.25-3.3s-9.25,1.12-13.15,3.35c-3.9,2.23-6.98,5.23-9.25,9-2.27,3.77-3.4,8.02-3.4,12.75s1.13,9.12,3.4,12.95c2.27,3.83,5.35,6.87,9.25,9.1,3.9,2.23,8.28,3.35,13.15,3.35s9.37-1.12,13.3-3.35c3.93-2.23,7.03-5.28,9.3-9.15,2.27-3.87,3.4-8.17,3.4-12.9s-1.15-9-3.45-12.8c-2.3-3.8-5.4-6.8-9.3-9ZM237.65,54.8c-1.03,1.93-2.5,3.47-4.4,4.6-1.9,1.13-4.08,1.7-6.55,1.7s-4.54-.57-6.4-1.7c-1.87-1.13-3.32-2.67-4.35-4.6-1.04-1.93-1.55-4.17-1.55-6.7s.52-4.77,1.55-6.7c1.03-1.93,2.48-3.45,4.35-4.55,1.87-1.1,4-1.65,6.4-1.65s4.62.55,6.45,1.65c1.83,1.1,3.3,2.62,4.4,4.55,1.1,1.93,1.65,4.17,1.65,6.7s-.52,4.77-1.55,6.7Z"/>
        <path class="cls-1" d="M295,28.19c-1.26-1.18-2.67-2.21-4.3-3.04-2.8-1.43-5.93-2.15-9.4-2.15-4.47,0-8.45,1.1-11.95,3.3s-6.29,5.2-8.35,9c-2.07,3.8-3.1,8.1-3.1,12.9s1.03,9,3.1,12.8c2.07,3.8,4.85,6.8,8.35,9s7.48,3.3,11.95,3.3c3.53,0,6.7-.72,9.5-2.15,1.64-.84,3.05-1.88,4.3-3.09v4.24h13.2V0h-13.3v28.19ZM294.35,54.9c-1.04,1.93-2.48,3.47-4.35,4.6-1.87,1.13-4,1.7-6.4,1.7s-4.43-.55-6.3-1.65c-1.87-1.1-3.32-2.63-4.35-4.6-1.03-1.97-1.55-4.25-1.55-6.85s.52-4.78,1.55-6.75c1.03-1.97,2.47-3.5,4.3-4.6,1.83-1.1,3.98-1.65,6.45-1.65s4.52.57,6.35,1.7c1.83,1.13,3.27,2.67,4.3,4.6,1.03,1.93,1.55,4.2,1.55,6.8s-.52,4.77-1.55,6.7Z"/>
        <path class="cls-1" d="M362.6,34.6c-2-3.67-4.8-6.53-8.4-8.6-3.6-2.07-7.67-3.1-12.2-3.1-4.8,0-9.13,1.1-13,3.3-3.87,2.2-6.92,5.2-9.15,9-2.23,3.8-3.35,8.1-3.35,12.9s1.13,9.2,3.4,13c2.27,3.8,5.38,6.8,9.35,9,3.97,2.2,8.48,3.3,13.55,3.3,3.93,0,7.57-.7,10.9-2.1,3.33-1.4,6.23-3.5,8.7-6.3l-7.8-7.8c-1.47,1.73-3.2,3-5.2,3.8s-4.23,1.2-6.7,1.2c-2.73,0-5.13-.57-7.2-1.7-2.07-1.13-3.65-2.78-4.75-4.95-.43-.86-.76-1.79-1.02-2.76l35.27-.09c.27-1.07.43-2.05.5-2.95.07-.9.1-1.78.1-2.65,0-4.67-1-8.83-3-12.5ZM335.1,35.6c1.93-1.13,4.2-1.7,6.8-1.7,2.47,0,4.53.5,6.2,1.5,1.67,1,2.97,2.47,3.9,4.4.45.93.79,1.97,1.04,3.12l-23.31.07c.24-.89.53-1.75.92-2.53,1.03-2.1,2.52-3.72,4.45-4.85Z"/>
      </g>
      <circle class="cls-3" cx="384.18" cy="62.8" r="10.6"/>
    </g>
  </g>
</svg>